<?xml version="1.0" encoding="UTF-8"?>
<svg id="Layer_1" data-name="Layer 1" xmlns="http://www.w3.org/2000/svg" viewBox="0 0 1810.82 822.99">
  <defs>
    <style>
      .cls-1 {
        stroke: #fff;
        stroke-linecap: round;
        stroke-linejoin: round;
        stroke-width: 2px;
      }

      .cls-1, .cls-2 {
        fill: #fff;
      }
    </style>
  </defs>
  <path class="cls-2" d="M156.99,347.49c-6.38-7.28-15.02-11.7-22.74-17.24-.69-.5-1.71.2-1.25-1.75l52.63-48.41,56.86,43.88c2.38,5.37-1.43,4.92-4.03,7.99-4.8,5.66-6.84,12.14-7.51,19.49v260.87s58.54,33.64,58.54,33.64l1.27-2.22.05-296.17-24.82-18.07,53.49-49.55c10.76,8.19,20.98,17.08,31.59,25.45,6.1,4.81,18.21,11.99,22.95,17.04,4.94,5.26.09,5.39-2.3,8.78-6.02,8.57-6.7,17.09-7.78,27.22l-.12,258.88c-42.27,25.67-84.39,51.54-125.17,79.5l-68.01-43.63-64.97,43.63-93.2-59.84c-2.46-3.97,3.99-7.18,5.95-10.07,6.2-9.15,3.43-22.15,5.61-32.39l-.56-247.52L0,328.5l52.64-48.36,56.86,43.84c2.38,5.37-1.43,4.92-4.03,7.99-4.8,5.66-6.84,12.14-7.51,19.49l.06,259.01,1.42,2.58,57.56,32.94v-298.5Z"/>
  <path class="cls-2" d="M1082.98,302.99c-6.4-18.75-5.79-37.55-1.12-56.63,1.93-7.89,9.95-31.49,18.09-33.97,6.2-1.89,8.23,3.95,8.06,9.04-.4,11.92-7.96,29.68-9.06,43.02-2.06,25.04,7.01,47.01,27.12,61.95,5.7,4.23,13.44,6.17,15.93,13.1-5.15,8.12-12.45,13.39-12.05,23.94l.02,253.02-2.03,2.97c-41.14,24.14-81.69,49.37-120.27,77.41l-97.19-61.74.44-2.4c7.77-4.4,10.16-11.71,11.12-20.19l-.05-254.83,64-39.21c-14.01-16.2-22.47-36.17-29.94-56.04-45.07-22.47-73.38-54.36-86.76-103.24-2.08-7.62-7.15-26.05-2.35-32.53,5.88-4.71,11.27,1.89,14.27,6.61,7.53,11.87,12.37,27.78,19.63,40.37,11.32,19.64,24.96,31.91,47.17,38.32-3.28-22.3-.05-43.6,5.29-65.21,1.12-4.53,4.3-11.28,4.74-15.26.94-8.49-3.02-21.19-3.06-30.07-.07-13.65,8.12-49.37,18-58.99,7.82-7.61,12.52-2.49,12.03,7.02-.61,11.86-6.65,24.99-7.86,37.16-.11,1.12-1.01,4.51.86,4.36,8.06-16.61,20.2-33.2,32.04-47.46,8.69-10.47,36.37-40.42,48.75-43.27,5.63-1.3,9.67,2.61,9.29,8.23-.2,2.91-3.95,9.7-5.53,12.55-8.31,14.99-21.15,29.81-30.35,44.65-32.08,51.76-48.05,111.59-22.37,169.99,14.23,32.36,44.57,49.33,73.17,67.32ZM1055.99,645.99v-279.5c-11.05-7.66-22.2-15.31-33.69-22.31-6.11-3.72-16.6-10.89-22.59-13.41-1.26-.53-2.26-1.04-3.72-.78v280l60,36Z"/>
  <path class="cls-2" d="M1342.19,796.2c-2.31,1.33-6.29,14.48-7.97,17.51-.62,1.13.07,1.71-2.21,1.27-1.1-4.23-10.14-16.51-8.55-19.96l82.53-100.02-89.9-60.67.93-2.82c7.48-3.95,10.12-11.99,11.01-19.99v-252.01s3.03-3.96,3.03-3.96c35.48-19.83,70.12-41.22,103.26-64.74,3.1-2.2,14.26-12.22,16.92-11.69l96.66,59.54c.63,2.41-7.37,8.89-9.08,12.64-1.74,3.8-2.29,8.04-2.86,12.14v262.07c-.89,26.28,32.97,52.18,29.77,76.71-1.76,13.52-23.67,34.84-32.71,46.28-19.45,24.61-38.76,49.37-57.69,74.39-2.55.75-8.16-3.96-10.66-5.09-38.21-17.28-80.38-26.35-122.48-21.62ZM1401.99,331.49v280.5l46.98,32.99,12.81-15.7-.8-263.79-55.92-35.1c-1.09-.91-2.83.2-3.07,1.09ZM1512.99,759.98c-1.26-3.61-.71-7.38-1.44-11.05-4.53-22.82-18.89-34.68-31.37-52.63-9.81-14.11-16.88-27.57-17.19-45.31l-70.99,83.5c31.1,1.81,63.66,3.46,93.27,13.72,9.4,3.26,18.37,8.36,27.72,11.77Z"/>
  <path class="cls-2" d="M860.2,626.79c10.99,6.48,21.77,15.09,35.13,15.37l1.66,2.32-53.7,52.38-69.36-47.47.56-3.41c8.07-5.41,10.66-15.18,11.55-24.45l-.06-262.02c0-1.19-.75-1.77-1.44-2.56-2.02-2.27-14.17-10.1-17.63-12.37-2.61-1.72-14.64-9.8-16.36-9.64l-24.14,19.5-.19,274.94c.57,3,19.86,13.25,22.85,17.04.75.95,1.15,1.75,1,3l-51.55,47.33-57.31-42.95c-1.77-5.22,3.32-6.9,5.63-10.47,4.76-7.37,5.04-16.4,6.2-24.8l-.02-267.84c-6.12-4.4-12.6-8.72-19.66-11.56-5.26-2.12-10.07-2.57-14.81-4.19-1.32-.45-2.71-.51-2.55-2.44l53.02-52.05,2.94.02,62.54,46.22,53.95-45.76,3.79-.77,79.3,52.8c1.63,5.59-5.51,7.95-8.05,13.02-2.28,4.57-2.65,10.49-3.53,15.47l.25,265.34Z"/>
  <path class="cls-2" d="M1809.67,341.69c-.98,1.14-3.19,1.91-4.68,3.8-5,6.32-5.96,15.27-7.04,22.96l.06,249.84c-32.02,19.55-64.23,38.87-95.33,59.89-9.03,6.1-17.71,13.29-27.03,18.65l-96.5-61.48-.03-3.26c8.33-1.64,10.04-11.47,11.9-18.59l-.02-255.8c41.69-24.89,82.84-50.68,122.52-78.69l97.33,59.63c.05,1.16-.4,2.2-1.15,3.06ZM1724.99,645.99v-279.5c-11.25-7.36-22.22-15.3-33.7-22.3-6.47-3.95-16.2-10.32-22.76-13.24-1.19-.53-1.98-1.33-3.55-.95v280l56.26,35.24,3.74.76Z"/>
  <path class="cls-2" d="M1343,90.98c1.87.23.7-1.98.53-3.03-.53-3.35-1.24-6.79-1.86-10.15-1.34-7.26-7.58-28.58-6.22-33.83,2.54-9.83,10.48-4.21,14.56,1.49,8.33,11.64,14.3,35.77,15.02,49.98.6,11.8-3.1,24.96-2.03,36.03.62,6.38,4.85,15.48,6.5,22.5,4.35,18.56,6.12,38.14,3.49,57,24.39-4.6,39.08-22.46,50.17-43.32,4.84-9.09,13.85-33.92,20.32-39.68,5.19-4.62,10.97-3.39,12.27,3.75,2.71,14.85-14.06,56.81-21.95,70.57-13.09,22.84-33.59,38.74-55.5,52.5-3.79,2.38-12.71,5.85-15.33,8.67-3.7,3.97-10.81,21.15-14.56,27.44-4.03,6.76-8.95,14.04-13.6,20.4-19.17,26.21-44.74,43.88-68.61,65.39l-.25,249.63c5.96,3.08,12.28,8.22,18.36,10.85,5.66,2.45,11.14,2.4,15.94,4.06,1.2.41,2.9,1.72,2.66,3.12l-55.23,52.51-67.76-47.47.57-3.4c8.11-4.76,10.56-13.54,11.54-22.46l-.79-263.28c-3.24-5.29-10.36-14.54-11.83-20.26s4.18-5.68,7.9-8.18c24.6-16.48,34.73-36.43,32.72-66.36-.91-13.47-7.04-27.07-8.02-39.97-1.16-15.39,6.77-16.11,14.61-4.62,9.85,14.45,15.98,45.46,14.41,62.67-.67,7.4-4.65,14.9-4.55,22.45,20.67-11.53,40.43-29.14,55.49-47.51,47.26-57.7,36.57-125.5.83-185.78-7.66-12.93-37.77-51.66-39.57-62.43-1.58-9.51,4.48-11.1,12.05-8.04,14.7,5.95,37.35,31.62,47.69,44.3,11.1,13.6,22.07,28.85,30.04,44.46Z"/>
  <path class="cls-2" d="M492.99,482.02l.49,113.01c18.24,10.36,55.46,38.12,76.78,33.73,6.75-1.39,14.8-12.8,17.23-12.81l10.55,11.57-67.69,69.37c-39.85-24.48-80.3-48.11-122.41-68.56-1.01-5.21,4.02-6.88,6.49-10.4,5.15-7.33,4.18-15.02,5.61-23.39l.1-257.9,1.52-1.48c43.54-12.31,84.36-32.51,122.74-56.09,24.14,39.89,45.22,81.67,72.5,119.6l-.34,1.33c-39.16,30.19-79.96,58.53-123.56,82.03ZM493.99,328.49c1.48,43.38,0,88.43,0,132,0,.08-2.4,2.39.48,1.49,4.59-1.44,15.12-8.32,19.83-11.17,12.93-7.81,25.11-16.93,37.67-25.31-20.26-32.05-40.17-64.48-57-98.5h-1.47c-1.41.16.48,1.25.49,1.5Z"/>
  <path class="cls-1" d="M267.49,330.49c1.33-.17,2.67-.33,4-.5"/>
</svg>